<mxfile host="app.diagrams.net" modified="2023-04-26T07:40:21.418Z" agent="Mozilla/5.0 (X11; Linux x86_64) AppleWebKit/537.36 (KHTML, like Gecko) Chrome/114.0.0.0 Safari/537.36 Edg/114.0.0.0" etag="0hwgAeXldUgOmlnmKe9B" version="21.2.2" type="github">
  <diagram name="Page-1" id="wgWyXsWMhn1ze_9gEnJO">
    <mxGraphModel dx="862" dy="421" grid="1" gridSize="10" guides="1" tooltips="1" connect="1" arrows="1" fold="1" page="1" pageScale="1" pageWidth="850" pageHeight="1100" math="0" shadow="0">
      <root>
        <mxCell id="0" />
        <mxCell id="1" parent="0" />
        <mxCell id="XNS6Ot50ZJ6HP5vMqHeE-4" style="edgeStyle=orthogonalEdgeStyle;rounded=0;orthogonalLoop=1;jettySize=auto;html=1;" edge="1" parent="1" source="XNS6Ot50ZJ6HP5vMqHeE-1" target="XNS6Ot50ZJ6HP5vMqHeE-3">
          <mxGeometry relative="1" as="geometry" />
        </mxCell>
        <mxCell id="XNS6Ot50ZJ6HP5vMqHeE-5" style="edgeStyle=orthogonalEdgeStyle;rounded=0;orthogonalLoop=1;jettySize=auto;html=1;entryX=0.5;entryY=0;entryDx=0;entryDy=0;" edge="1" parent="1" source="XNS6Ot50ZJ6HP5vMqHeE-1" target="XNS6Ot50ZJ6HP5vMqHeE-2">
          <mxGeometry relative="1" as="geometry" />
        </mxCell>
        <mxCell id="XNS6Ot50ZJ6HP5vMqHeE-1" value="" style="rhombus;whiteSpace=wrap;html=1;" vertex="1" parent="1">
          <mxGeometry x="380" y="180" width="80" height="80" as="geometry" />
        </mxCell>
        <mxCell id="XNS6Ot50ZJ6HP5vMqHeE-11" style="edgeStyle=orthogonalEdgeStyle;rounded=0;orthogonalLoop=1;jettySize=auto;html=1;" edge="1" parent="1" source="XNS6Ot50ZJ6HP5vMqHeE-2" target="XNS6Ot50ZJ6HP5vMqHeE-3">
          <mxGeometry relative="1" as="geometry" />
        </mxCell>
        <mxCell id="XNS6Ot50ZJ6HP5vMqHeE-2" value="" style="shape=step;perimeter=stepPerimeter;whiteSpace=wrap;html=1;fixedSize=1;" vertex="1" parent="1">
          <mxGeometry x="80" y="290" width="120" height="80" as="geometry" />
        </mxCell>
        <mxCell id="XNS6Ot50ZJ6HP5vMqHeE-3" value="" style="shape=step;perimeter=stepPerimeter;whiteSpace=wrap;html=1;fixedSize=1;" vertex="1" parent="1">
          <mxGeometry x="630" y="290" width="120" height="80" as="geometry" />
        </mxCell>
        <mxCell id="XNS6Ot50ZJ6HP5vMqHeE-6" value="GreenSync" style="text;html=1;strokeColor=none;fillColor=none;align=center;verticalAlign=middle;whiteSpace=wrap;rounded=0;" vertex="1" parent="1">
          <mxGeometry x="390" y="206" width="60" height="30" as="geometry" />
        </mxCell>
        <mxCell id="XNS6Ot50ZJ6HP5vMqHeE-7" value="Farmer" style="text;html=1;strokeColor=none;fillColor=none;align=center;verticalAlign=middle;whiteSpace=wrap;rounded=0;" vertex="1" parent="1">
          <mxGeometry x="110" y="315" width="60" height="30" as="geometry" />
        </mxCell>
        <mxCell id="XNS6Ot50ZJ6HP5vMqHeE-8" value="Consumer" style="text;html=1;strokeColor=none;fillColor=none;align=center;verticalAlign=middle;whiteSpace=wrap;rounded=0;" vertex="1" parent="1">
          <mxGeometry x="660" y="315" width="60" height="30" as="geometry" />
        </mxCell>
        <mxCell id="XNS6Ot50ZJ6HP5vMqHeE-9" value="30%" style="text;html=1;strokeColor=none;fillColor=none;align=center;verticalAlign=middle;whiteSpace=wrap;rounded=0;" vertex="1" parent="1">
          <mxGeometry x="710" y="250" width="60" height="30" as="geometry" />
        </mxCell>
        <mxCell id="XNS6Ot50ZJ6HP5vMqHeE-10" value="70%" style="text;html=1;strokeColor=none;fillColor=none;align=center;verticalAlign=middle;whiteSpace=wrap;rounded=0;" vertex="1" parent="1">
          <mxGeometry x="40" y="236" width="60" height="30" as="geometry" />
        </mxCell>
      </root>
    </mxGraphModel>
  </diagram>
</mxfile>
